
						<svg width="24" height="24" viewBox="0 0 24 24" fill="none" xmlns="http://www.w3.org/2000/svg">
<path d="M9.00005 3.5H6.62879C5.22269 3.5 4.00525 4.4766 3.70023 5.84921L2.8295 9.76747C2.47925 11.3436 4.07299 12.7087 5.66021 12.4127C6.31621 12.2904 6.97508 12.2189 7.55561 12.25M9.00005 3.5H15.0001M9.00005 3.5L7.55561 12.25M15.0001 3.5H17.3713C18.7774 3.5 19.9949 4.4766 20.2999 5.84921L21.1706 9.76747C21.5209 11.3436 19.9271 12.7087 18.3399 12.4127C17.6839 12.2904 17.025 12.2189 16.4445 12.25M15.0001 3.5L16.4445 12.25M7.55561 12.25C9.34266 12.3457 10.211 13.5 12.0001 13.5C13.7891 13.5 14.6574 12.3457 16.4445 12.25M5.00005 12.5V17.5C5.00005 19.1569 6.3432 20.5 8.00005 20.5H10.0001M19 12.5V17.5C19 19.1569 17.6569 20.5 16.0001 20.5H14.0001M10.0001 20.5V18.5C10.0001 17.3954 10.8955 16.5 12.0001 16.5C13.1046 16.5 14.0001 17.3954 14.0001 18.5V20.5M10.0001 20.5H14.0001" stroke="#363538" stroke-width="1.5" stroke-linecap="round"></path>
</svg>
					