
						<svg width="24" height="24" viewBox="0 0 24 24" fill="none" xmlns="http://www.w3.org/2000/svg">
<path d="M3 14V17C3 18.1046 3.89543 19 5 19H6M6 19C6 18.1716 6.67157 17.5 7.5 17.5C8.32843 17.5 9 18.1716 9 19M6 19V19.5C6 20.3284 6.67157 21 7.5 21C8.32843 21 9 20.3284 9 19.5V19M15 19H9M15 19C15 18.1716 15.6716 17.5 16.5 17.5C17.3284 17.5 18 18.1716 18 19M15 19V19.5C15 20.3284 15.6716 21 16.5 21C17.3284 21 18 20.3284 18 19.5V19M16 11H17.5935C18.9996 11 20.217 11.9766 20.522 13.3492L20.9286 15.1785C20.976 15.3922 21 15.6104 21 15.8293V17C21 18.1046 20.1046 19 19 19H18M16 11V10C16 8.69378 15.1652 7.58254 14 7.17071M16 11V17M7 5.5V7.30769L8 8M11 7.5C11 5.01472 8.98528 3 6.5 3C4.01472 3 2 5.01472 2 7.5C2 9.98528 4.01472 12 6.5 12C8.98528 12 11 9.98528 11 7.5Z" stroke="#363538" stroke-width="1.5" stroke-linecap="round" stroke-linejoin="round"></path>
</svg>
					