
						<svg width="24" height="24" viewBox="0 0 24 24" fill="none" xmlns="http://www.w3.org/2000/svg">
<path d="M6 19H18M6 19C4.34315 19 3 17.6569 3 16M6 19C6 17.3431 4.65685 16 3 16M3 16V8M21 16V8M21 16C21 17.6569 19.6569 19 18 19M21 16C19.3431 16 18 17.3431 18 19M18 5H6M18 5C19.6569 5 21 6.34315 21 8M18 5C18 6.65685 19.3431 8 21 8M6 5C4.34315 5 3 6.34315 3 8M6 5C6 6.65685 4.65685 8 3 8M15 12C15 13.1046 13.6569 14 12 14C10.3431 14 9 13.1046 9 12C9 10.8954 10.3431 10 12 10C13.6569 10 15 10.8954 15 12Z" stroke="#363538" stroke-width="1.5"></path>
</svg>
					